<?xml version="1.0" encoding="utf-8"?>
<!-- Generator: Adobe Illustrator 28.2.0, SVG Export Plug-In . SVG Version: 6.00 Build 0)  -->
<svg version="1.1" id="_x32_" xmlns="http://www.w3.org/2000/svg" xmlns:xlink="http://www.w3.org/1999/xlink" x="0px" y="0px"
	 viewBox="0 0 800 800" style="enable-background:new 0 0 800 800;" xml:space="preserve">
<style type="text/css">
	.st0{fill:#FFFFFF;}
</style>
<g>
	<path class="st0" d="M688.9,106.1H111.1C49.7,106.1,0,155.9,0,217.2v365.6c0,61.3,49.7,111.1,111.1,111.1h577.9
		c61.3,0,111.1-49.7,111.1-111.1V217.2C800,155.9,750.3,106.1,688.9,106.1z M278.4,502.7L122.9,635.4c-11,9.4-27.5,8.1-36.8-2.9
		c-9.4-11-8.1-27.5,2.9-36.8l155.5-132.7c11-9.4,27.5-8.1,36.8,2.9C290.7,476.8,289.4,493.3,278.4,502.7z M400,452.2
		c-20.8-0.1-41-7-56.7-20.6l0,0l-0.1,0c0,0,0,0,0,0L104.6,224.5c-10.9-9.5-12.1-26-2.6-36.8c9.5-10.9,26-12.1,36.8-2.6l238.7,207.2
		c5.1,4.5,13.5,7.8,22.4,7.8c8.9,0,17.2-3.2,22.6-7.9l0.1-0.1l238.5-207c10.9-9.5,27.4-8.3,36.8,2.6c9.4,10.9,8.3,27.4-2.6,36.8
		L456.7,431.7C441,445.2,420.8,452.2,400,452.2z M714,632.5c-9.4,11-25.9,12.3-36.8,2.9L521.6,502.7c-11-9.4-12.3-25.9-2.9-36.8
		c9.4-11,25.9-12.3,36.8-2.9l155.5,132.7C722,605,723.3,621.5,714,632.5z"/>
</g>
</svg>
