<?xml version="1.0" encoding="UTF-8"?>
<svg id="Layer_1" data-name="Layer 1" xmlns="http://www.w3.org/2000/svg" viewBox="0 0 200 230.42">
  <defs>
    <style>
      .cls-1 {
        fill: #9cecf9;
      }

      .cls-1, .cls-2, .cls-3, .cls-4, .cls-5, .cls-6, .cls-7, .cls-8 {
        stroke-width: 0px;
      }

      .cls-2 {
        fill: #ffd7b5;
      }

      .cls-3 {
        fill: #002141;
      }

      .cls-4, .cls-9 {
        fill: #fff;
      }

      .cls-9 {
        stroke: #000;
        stroke-miterlimit: 10;
        stroke-width: .41px;
      }

      .cls-5 {
        opacity: .67;
      }

      .cls-5, .cls-7 {
        fill: #0680af;
      }

      .cls-6 {
        fill: #d2dfea;
      }

      .cls-7 {
        opacity: .36;
      }

      .cls-10 {
        opacity: .42;
      }

      .cls-8 {
        fill: #2cbad2;
      }
    </style>
  </defs>
  <path class="cls-7" d="M19.95,104.53s.34-.12.76-.14c-.37.14-.76.14-.76.14Z"/>
  <path class="cls-8" d="M172.36,219.82c0,3.03,1.93,6.05-2.75,7.7-2.4.85-3.85.75-4.77-.09-.88-.81-1.29-2.3-1.55-4.31-.55-4.13-1.38-10.45-5.78-14.03-4.4-3.58-7.98-6.05-7.98-6.05v-23.1s6.88-3.03,14.3-2.2c3.48.39,5.45,2.16,6.48,4.64,1.16,2.83,1.11,6.56.67,10.21-.83,6.88-1.65,8.25,1.65,16.23s-.27,7.98-.27,11Z"/>
  <path class="cls-5" d="M172.36,219.82c0,3.03,1.93,6.05-2.75,7.7-2.4.85-3.85.75-4.77-.09,1.17.11,2.51.09,3.3-.42,1.67-1.07,2.39-2.98,1.47-6.28-.92-3.3,1.28-3.49,1.1-7.99-.19-4.51-2.94-11.27-3.85-15.97-.92-4.71,1.65-6.84-.92-10.52-2.56-3.66-9.71-3.07-9.71-3.07,0,0,1.29,1.98,1.29,3.63s-.52,7.71-7.98,8.69v-15.57s6.88-3.03,14.3-2.2c3.48.39,5.45,2.16,6.48,4.64,1.16,2.83,1.11,6.56.67,10.21-.83,6.88-1.65,8.25,1.65,16.23s-.27,7.98-.27,11Z"/>
  <path class="cls-8" d="M46.76,221.56c-.39,4.6-2.9,6.92-7.09,7.64-1.83.31-3.97.32-6.39.07-7.98-.83-15.13-.83-18.43-.55-3.3.28-6.05.55-8.8,1.38-2.5.75-5.43.36-5.96-2.78-.06-.33-.09-.68-.09-1.07,0-4.13,2.75-3.58,2.75-3.58,0,0-.27-2.2,1.38-3.3,1.65-1.1,3.3-.83,3.3-.83,0,0,.41-1.63,2.09-2.26.28-.11.58-.19.94-.22,2.48-.27,2.75-.27,6.88-1.93,2.38-.95,3.48-2.35,4.54-4.63.8-1.68,1.6-3.84,2.88-6.64l19.53,1.38s3.03,10.73,2.48,17.33Z"/>
  <path class="cls-5" d="M46.76,221.56c-.39,4.6-2.9,6.92-7.09,7.64-1.83.31-3.97.32-6.39.07-7.98-.83-15.13-.83-18.43-.55-3.3.28-6.05.55-8.8,1.38-2.5.75-5.43.36-5.96-2.78-.06-.33-.09-.68-.09-1.07,0-4.13,2.75-3.58,2.75-3.58,0,0-.27-2.2,1.38-3.3,1.65-1.1,3.3-.83,3.3-.83,0,0,.41-1.63,2.09-2.26-.25,1.29-1.6,2.75-3.36,4.14-3.55,2.82-1.17,1.91-.89,1.8-.37.3-5.14,3.98-1.88,3.23,3.39-.77,12.5-.47,20.02-1.6,7.53-1.11,12.71,2.31,16.85-1.85,4.15-4.17,0-9.18,0-9.18,0,0-2.35,1.43-6.33.81-3.97-.63-4.76-3.32-4.76-3.32,0,0-2.59,1.62-7.31-.83.8-1.68,1.6-3.84,2.88-6.64l19.53,1.38s3.03,10.73,2.48,17.33Z"/>
  <path class="cls-6" d="M70.14,156.1s-8.8,6.6-14.03,18.15-3.3,23.93-3.85,30.53c-.55,6.6-8.53,2.75-8.53,2.75,0,0-4.4,2.2-8.25,2.75-3.85.55-6.6-4.13-6.6-4.13,0,0-2.2,3.3-9.08-.55-1.57-.88-2.29-2.7-2.29-5.16-.02-8.31,7.93-23.94,17.69-35.82,5.46-6.64,10.76-10.68,15.03-13.1,5.62-3.23,9.45-3.67,9.45-3.67l10.45,8.25Z"/>
  <path class="cls-7" d="M70.14,156.1s-8.8,6.6-14.03,18.15-3.3,23.93-3.85,30.53c-.55,6.6-8.53,2.75-8.53,2.75,0,0-4.4,2.2-8.25,2.75-3.85.55-6.6-4.13-6.6-4.13,0,0-2.2,3.3-9.08-.55-1.57-.88-2.29-2.7-2.29-5.16,1.31,1.02,3.23,2.26,5.9,3.32,5.85,2.38,7.31-.91,7.31-.91,0,0,2.38,4.4,6.96,3.38s5.85-5.81,5.85-5.81c0,0,2.04,5.18,4.96.97,2.94-4.22-.91-14.3.94-26.4s8.76-16.68,8.76-16.68c0,0-4.26-1.28-7.95-6.79,5.62-3.23,9.45-3.67,9.45-3.67l10.45,8.25Z"/>
  <path class="cls-6" d="M154.02,202.04c.48,3.15-.74,5.43-5.51,5.38-.66-.01-1.4-.06-2.19-.15-6.6-.83-21.73,1.65-34.93-10.45-8.09-7.4-13.59-19.56-16.65-27.87-1.93-5.26-2.88-8.99-2.88-8.99l14.58-2.48s.54,3.32,2.26,7.43c2.67,6.4,8.2,14.73,18.92,15.4,17.6,1.1,19.8-7.15,24.2-5.23,1.1.48,1.68,1.22,1.95,2.06.77,2.52-1.4,5.92-1.4,5.92,0,0,2.75,3.58,1.65,6.88-1.1,3.3-2.75,4.95-2.75,4.95,0,0,2.2,3.58,2.75,7.15Z"/>
  <path class="cls-7" d="M154.02,202.04c.48,3.15-.74,5.43-5.51,5.38.08-1.31.37-2.79,1.11-4.28,2.1-4.25-2.48-12.56-7.24-15.13-4.77-2.56-13.03,2.94-26.94-6.06-13.93-8.99-10.65-15.2-10.65-15.2,0,0-3.99,2.96-10.04,2.2-1.93-5.26-2.88-8.99-2.88-8.99l14.58-2.48s.54,3.32,2.26,7.43c2.67,6.4,8.2,14.73,18.92,15.4,17.6,1.1,19.8-7.15,24.2-5.23,1.1.48,1.68,1.22,1.95,2.06.77,2.52-1.4,5.92-1.4,5.92,0,0,2.75,3.58,1.65,6.88-1.1,3.3-2.75,4.95-2.75,4.95,0,0,2.2,3.58,2.75,7.15Z"/>
  <path class="cls-8" d="M58.01,7.76c-.83,2.1-6.06,7.64-7.15,10.81-1.08,3.17-.95,5.4-3.23,7.62,0,0-.87-2.68-1.44-7.03v-.04c-.13-1.02-.25-2.15-.34-3.34-.44-6.29.57-5.91.57-5.91,0,0,.05.02.14.04.17.07.44.14.79.17.67.06,1.61-.08,2.43-.91,1.32-1.32,4.19-3.94,6.17-4.44.31-.08.59-.11.85-.08,1.91.25,2.04,1.02,1.21,3.11Z"/>
  <path class="cls-5" d="M58.01,7.76c-.83,2.1-6.06,7.64-7.15,10.81-1.08,3.17-.95,5.4-3.23,7.62,0,0-.87-2.68-1.44-7.03v-.04c.01-3.94.3-8.1.37-9.21.17.07.44.14.79.17.37.3.84.79,1.34,1.6,1.14,1.85.99,3.85,1.85,3.3.85-.55,2.26-3.81,4.51-6.69,1.43-1.82,1.75-3.06.9-3.56.31-.08.59-.11.85-.08,1.91.25,2.04,1.02,1.21,3.11Z"/>
  <path class="cls-6" d="M67.15,84.66c-.1,1.46-.8,3.03-3.07,3.78-1.06.35-2.13.66-3.26.91-4.16.94-8.94,1.03-15.45-.91-8.25-2.48-12.93-6.6-12.93-6.6,0,0-1.65,1.93-4.13,1.1-2.48-.83-2.75-5.5-2.75-5.5,0,0-2.2,3.3-4.13-.28-1.93-3.58-1.38-9.63-4.13-18.98-1.78-6.07-2.53-16.11-1.77-22.84.41-3.62,1.24-6.28,2.6-6.87,3.85-1.65,4.95.83,4.95.83,0,0,1.1-3.03,5.78-3.3,4.68-.28,8.25,2.2,8.25,2.2,0,0,6.33-3.03,8.8.83,2.48,3.85-3.58,12.38,1.38,31.63,4.95,19.25,19.25,20.63,19.25,20.63,0,0,.73,1.62.59,3.37Z"/>
  <path class="cls-7" d="M67.15,84.66l-6.33,4.7s-5.07-.46-5.84-3.63c-.73-2.95,1.58-3.5,1.93-3.56-.34.05-2.82.37-3.87-2.39-1.07-2.82,1.42-1.89,1.71-1.78-.37-.2-5.27-2.92-13.52-15.95-8.34-13.16-4.85-21.26-4.63-21.73-.33.35-3.87,4.11-8.8,3.51-4.93-.59-2.98-3.1-2.79-3.32-.28.19-5.2,3.37-9.44-5.15.41-3.62,1.24-6.28,2.6-6.87,3.85-1.65,4.95.83,4.95.83,0,0,1.1-3.03,5.78-3.3,4.68-.28,8.25,2.2,8.25,2.2,0,0,6.33-3.03,8.8.83,2.48,3.85-3.58,12.38,1.38,31.63,4.95,19.25,19.25,20.63,19.25,20.63,0,0,.73,1.62.59,3.37Z"/>
  <path class="cls-8" d="M196.93,146.75c-1.93,1.65-.83,3.3-4.13,3.85-3.3.55-5.23.27-7.98,1.93-2.75,1.65-4.95,1.38-7.43,1.38s-2.48,1.65-6.6.83c-4.13-.83-3.85-3.03-3.85-3.03t-.02-.01c-.19-.17-1.72-1.43-3-2.46-1.38-1.1-1.65-5.5-1.1-9.35.37-2.62,1.64-4.22,3.19-7.5.74-1.53,1.52-3.43,2.31-5.97l1.65.27s17.56-9.03,22.97-6.25c.25.13.48.29.68.47.14.13.28.26.4.41,4.04,4.43,4.59,15.39,5.65,19.12,1.1,3.85-.83,4.68-2.75,6.33Z"/>
  <path class="cls-5" d="M196.93,146.75c-1.93,1.65-.83,3.3-4.13,3.85-3.3.55-5.23.27-7.98,1.93-2.75,1.65-4.95,1.38-7.43,1.38s-2.48,1.65-6.6.83c-4.13-.83-3.85-3.03-3.85-3.03,3.66,1.1,4.04-1.29,7.08-1.29s6.85.92,8.87-1.28c2.01-2.2,5.85.3,6.24-4.69.37-4.97-2.75-11.44-2.75-11.44,0,0-.55,1.09-5.1,2-4.57.92-7.25-2-7.25-2,0,0-4.19,1.01-8.02-.64.74-1.53,1.52-3.43,2.31-5.97l1.65.27s17.56-9.03,22.97-6.25l1.08.88c4.04,4.43,4.59,15.39,5.65,19.12,1.1,3.85-.83,4.68-2.75,6.33Z"/>
  <path class="cls-6" d="M145.22,127.22c-.83,3.58-3.03,2.48-3.03,2.48,0,0,2.48,10.45-5.78,18.7-1.55,1.54-3.09,2.75-4.57,3.7-6.39,4.09-11.66,3.18-11.66,3.18,0,0-3.58,4.13-9.08,5.23-5.5,1.1-11.28.28-11.28.28,0,0-.55,3.03-3.3,3.3-2.75.28-4.13-.83-4.13-.83,0,0-7.43,1.65-15.13-.55-3.34-.96-6.22-2.53-8.41-4.02-2.85-1.93-4.52-3.69-4.52-3.69,0,0-4.68.27-9.63-5.23-4.95-5.5-5.78-11.28-5.78-11.28,0,0-4.95-2.2-5.78-8.25-.83-6.05,4.68-11.55,4.68-11.55,0,0-6.05,0-7.43-6.33s6.05-7.98,14.85-18.7c-3.03-1.65-3.58-6.88,1.93-9.35,2.44-1.1,4.68-2.2,6.56-3.72,2.37-1.88,4.2-4.41,5.27-8.38l57.21-10.18s3.58,6.33,5.78,12.65c2.2,6.33,3.03,11,4.68,17.33.83,3.16,2.75,7.29,4.53,11.1,1.79,3.82,3.44,7.33,3.72,9.25.55,3.85-2.48,3.58-2.48,3.58,0,0,3.58,7.7,2.75,11.28Z"/>
  <path class="cls-7" d="M145.22,127.22c-.83,3.58-3.03,2.48-3.03,2.48,0,0,2.48,10.45-5.78,18.7-1.55,1.54-3.09,2.75-4.57,3.7-6.39,4.09-11.66,3.18-11.66,3.18,0,0-3.58,4.13-9.08,5.23-5.5,1.1-11.28.28-11.28.28,0,0-.55,3.03-3.3,3.3-2.75.28-4.13-.83-4.13-.83,0,0-7.43,1.65-15.13-.55-3.34-.96-6.22-2.53-8.41-4.02,3.08.65,9.77,1.93,15.64,2.22,7.93.4,14.2-2.6,14.2-2.6,0,0,4.05,1.01,8.63-.84,4.59-1.85,7.25-9.63,7.25-9.63,0,0,5.83,2.15,13.37-4.59,7.54-6.73,4.57-21.92,4.57-21.92,0,0,7.14,1.87,5.56-2.89-1.6-4.76-4.35-8.32-4.35-8.32,0,0,6.52,1.38,4.15-4.6-.22-.56-.51-1.18-.84-1.83-3.15-6.27-10.47-16.02-10.47-16.02,0,0-2.98,3.19-11.98,1.43-8.42-1.65-7.58-5.46-7.44-5.95-.27.61-3.07,6.48-7.81,5.87-4.5-.57-2.59-4.64-2.15-5.46-.67,1.08-5.39,8.04-15.4,7.51-10.85-.57-11.67-9.92-11.67-9.92,0,0-3.65.17-6.37-.58-2.4-.65-4.08-2-1.86-4.8.8-1,6.9-14.91,15.81-15.77,7.29-.7,35.67-2.06,48.55.31l-.02,1.69s3.58,6.33,5.78,12.65c2.2,6.33,3.03,11,4.68,17.33.83,3.16,2.75,7.29,4.53,11.1,1.79,3.82,3.44,7.33,3.72,9.25.55,3.85-2.48,3.58-2.48,3.58,0,0,3.58,7.7,2.75,11.28Z"/>
  <path class="cls-6" d="M132.49,65.54c-3.33,5.84-9.18,1.53-9.18,1.53,0,0,1.25,2.78-1.53,4.87-2.77,2.08-3.06.97-3.06.97,0,0,0,4.17-4.86,5.84-4.39,1.51-8.79-.73-9.6-1.18-.09-.04-.13-.08-.13-.08,0,0-1.25,5.57-4.31,5.57s-2.92-2.93-2.92-2.93c0,0-4.73,8.21-14.74,7.51-10.01-.69-10.98-10.98-10.98-10.98,0,0-3.89,1.11-5.98-1.82-2.08-2.92-.69-7.65-.69-7.65,0,0-3.2-1.25-3.61-3.75-.09-.51-.09-1.05,0-1.63.29-2.34,1.8-5.45,4.03-9.78,2.78-5.41.84-11.54,2.22-17.1,1-3.98,4.85-6.33,6.95-7.33.84-.41,1.4-.59,1.4-.59,0,0-.76-1.31-.57-2.96.07-.69.31-1.44.85-2.19,1.73-2.41,4.5-.45,4.72-.29h0c-.08-.15-.51-.94-.84-2.06-.2-.65-.36-1.42-.41-2.24-.14-2.37,1.8-6.12,5.84-5.57,4.03.56,5.14,3.06,12.09,5.7,6.95,2.65,15.58,1.12,20.86,5.57,5.28,4.44,5.84,10.29,10.29,15.44,0,0,3.48,2.64,1.95,5.28-1.53,2.64-3.75.84-3.75.84,0,0,.69,1.53,2.92,5.7,2.23,4.17,6.4,9.46,3.06,15.29Z"/>
  <path class="cls-8" d="M121.79,55.4c0,14.18-16.4,17.8-28.78,17.8-11.16,0-22.64-2.26-24.8-14.82-.25-1.38-.37-2.87-.37-4.51,0-16.55,17.25-16.96,17.25-16.96,0,0-.42,3.2,1.66,3.61,2.09.42,3.2-2.08,3.2-2.08,0,0,.27.42.84,2.37.55,1.95,2.5,4.03,5.28,2.5,2.68-1.47.85-5.14.7-5.41.19.08,2,.9,3.19-.29,1.25-1.25.14-2.22.14-2.22.42,0,.83.01,1.23.03,11.02.4,20.45,6.31,20.45,19.99Z"/>
  <circle class="cls-3" cx="77.57" cy="48.86" r="4.59"/>
  <path class="cls-6" d="M77.71,47.47c0,1-.81,1.81-1.81,1.81s-1.81-.81-1.81-1.81.81-1.81,1.81-1.81,1.81.81,1.81,1.81Z"/>
  <path class="cls-9" d="M109,47.47c0,1-.81,1.81-1.81,1.81s-1.81-.81-1.81-1.81.81-1.81,1.81-1.81,1.81.81,1.81,1.81Z"/>
  <circle class="cls-3" cx="108.3" cy="48.86" r="5.03"/>
  <path class="cls-3" d="M103.35,62.73h0c-.52,1.51-1.63,2.9-3.63,3.93-.09.04-.18.09-.27.13-.74.36-1.51.68-2.3.96h-.01c-4.51,1.57-9.71,1.71-13.55.01h-.01c-.34-.14-.67-.31-.99-.48-.95-.54-1.79-1.21-2.49-2.02-.54-.63-.92-1.25-1.18-1.87-1.53-3.5.91-6.64,2.89-7.08.3-.07.58-.08.85-.01,2.32.56,3.14,1.97,7.93,2.1,0,0,1.11.09,3.48-.95,1.52-.66,3.06-1.78,4.57-2.27.84-.28,1.66-.35,2.46-.04,1.56.59,3.4,4.29,2.26,7.6Z"/>
  <path class="cls-4" d="M82.58,67.28c-.95-.54-1.79-1.21-2.49-2.02-.54-.63-.92-1.25-1.18-1.87,1.14-.58,2.88-1.2,3.58-.7,1,.72.09,2.28.09,4.6Z"/>
  <path class="cls-4" d="M103.35,62.73h0c-.52,1.51-1.63,2.9-3.63,3.93-.09.04-.18.09-.27.13.21-1.06-.34-2.54-.5-4.38-.18-2.01,1.45-1.93,2.57-1.2.64.42,1.34,1.06,1.83,1.52Z"/>
  <path class="cls-1" d="M97.13,67.75c-4.51,1.57-9.71,1.71-13.55.01.48-1.01,2.3-4.09,6.46-4.06,3.94.03,6.3,2.88,7.1,4.05Z"/>
  <path class="cls-4" d="M98.61,57.87c-.31.69-1.24,2.19-6.91,2.75-5.65.55-9-.95-9.25-1.33-.21-.32-.52-1.85-.64-2.99.3-.07.58-.08.85-.01,2.32.56,3.14,1.97,7.93,2.1,0,0,1.11.09,3.48-.95,1.52-.66,3.06-1.78,4.57-2.27.08.77.19,2.21-.02,2.7Z"/>
  <path class="cls-2" d="M76.37,57.91c0,1.16-1.31,2.11-2.93,2.11s-2.93-.94-2.93-2.11,1.31-2.11,2.93-2.11,2.93.94,2.93,2.11Z"/>
  <path class="cls-2" d="M114.6,57.42c0,1.44-1.62,2.6-3.62,2.6s-3.62-1.17-3.62-2.6,1.62-2.6,3.62-2.6,3.62,1.17,3.62,2.6Z"/>
  <path class="cls-8" d="M90.66,151.23c-14.28,2.18-28.41-2.1-34.56-6.77-2.04-1.54-2.94-3.97-3.05-6.79-.29-6.53,3.61-15.19,7.2-19.91,3.71-4.9,8.6-10.12,14.33-11.82,2.19-.65,4.51-.78,6.92-.18,8.72,2.18,15.37,14.71,19.84,23.98,4.48,9.26,3.6,19.29-10.68,21.48Z"/>
  <path class="cls-6" d="M197.2,123.37c-1.1,1.93-3.85,1.65-3.85,1.65,0,0-.28,4.13-2.75,4.68-2.48.55-5.23-1.36-5.23-1.36-.08.22-1.01,2.74-5.23,2.74s-6.6-1.65-6.6-1.65c0,0-4.95,2.35-7.21-.79-.19-.25-.35-.54-.5-.86-1.93-4.4,2.75-14.3.28-20.35-2.48-6.05-8.53-12.65-16.23-16.23s-15.13-.83-19.8-3.3c-2.08-1.1-3.47-2.98-3.51-4.95-.05-2.45,1.98-5.02,7.36-6.33,9.08-2.2,15.95-6.05,34.1,1.93,3.81,1.67,7.34,4.52,10.55,8.01,12.09,13.16,19.47,35.3,18.6,36.82Z"/>
  <path class="cls-8" d="M48.13,22.98c.27,4.68-2.2,6.05-6.05,7.7,0,0-14.3,3.58-19.25,2.48-3.87-.86-4.88-4.08-5.8-8.09h-.01c-.24-1.1-.5-2.28-.79-3.47-.33-1.29-.53-2.67-.56-4.06-.2-4.5,1.18-8.98,4.96-10.24,4.95-1.65,18.98-6.6,23.93-2.2.4.35.75.73,1.07,1.13,3.63,4.64,2.26,12.44,2.51,16.74Z"/>
  <path class="cls-5" d="M48.13,22.98c.27,4.68-2.2,6.05-6.05,7.7,0,0-14.3,3.58-19.25,2.48-3.87-.86-4.88-4.08-5.8-8.09,1.89-1.03,7.16.91,7.16.91,0,0,6.34-2.45,10.92-1.17,4.58,1.28,6.23.55,6.11-1.98-.13-2.53.5-4.62-1.71-4.49s-4.95-.84-4.95-.84c0,0-1.29,1.62-3.49,1.65-2.2.03-6.07-.81-6.07-.81,0,0-2.7,2.29-9.34-.8-.2-4.5,1.18-8.98,4.96-10.24,4.95-1.65,18.98-6.6,23.93-2.2.4.35.75.73,1.07,1.13,3.63,4.64,2.26,12.44,2.51,16.74Z"/>
  <path class="cls-8" d="M22.48,17.75c-1.27.26-2.73.46-3.83.19-.31-.08-.58-.19-.83-.35-.01,0-.01-.01-.02-.01-.3-.21-.53-.51-.66-.9-.57-1.78-.57-7.44-.51-9.98.04-2.27,1.28-2.92,3.61-2.94.27,0,.57.01.89.02,0,0,1.91-.45,2.61,1.14.7,1.58.32,4.44.39,8,.07,3.55.44,4.38-1.65,4.83Z"/>
  <path class="cls-8" d="M29.21,1.87c-3.11.38-4.19,1.14-4.19,3.62s-.13,9.21.51,10.73c.64,1.52,3.43,1.46,5.27,1.02s2.16-1.21,2.1-3.49c-.06-2.29.44-7.49-.44-10.1-.89-2.6-3.24-1.78-3.24-1.78Z"/>
  <path class="cls-8" d="M37.4.85c-3.68.06-4.57,1.52-4.64,4s-.57,8.51.51,9.85c1.08,1.33,3.81,1.46,5.4.57,1.59-.89,1.33-1.59,1.46-4.64s.7-6.29-.06-8.38-2.67-1.4-2.67-1.4Z"/>
  <path class="cls-8" d="M45.47.02c-3.11.25-4.57.83-4.7,3.49-.13,2.67.13,7.43.25,8.7.13,1.27,1.27,2.1,2.99,2.48,1.71.38,3.62.06,3.62-2.86s.57-6.42,0-9.34C47.05-.42,45.47.02,45.47.02Z"/>
  <path class="cls-5" d="M32.89,13.74c.06,2.29-.26,3.05-2.1,3.5-1.84.44-4.63.51-5.27-1.02-.12-.3-.22-.78-.29-1.4.89.04,1.85-.09,2.63-.28,1.85-.44,2.16-1.2,2.1-3.49-.05-2.07.35-6.53-.24-9.3.74-.09,2.09.04,2.72,1.88.89,2.61.39,7.81.45,10.1Z"/>
  <path class="cls-5" d="M40.13,10.63c-.13,3.05.12,3.75-1.46,4.64-1.58.88-4.32.76-5.4-.57-.25-.31-.42-.87-.52-1.58,1.05.11,2.17-.08,2.99-.54,1.58-.88,1.33-1.58,1.46-4.63.1-2.49.5-5.09.22-7.11h0c.24-.08,1.94-.53,2.64,1.41.76,2.1.19,5.34.07,8.38Z"/>
  <path class="cls-5" d="M47.63,11.84c0,2.92-1.9,3.23-3.62,2.86-1.72-.39-2.86-1.21-2.98-2.49-.01-.07-.01-.14-.02-.23.02.01.05.01.08.02,1.72.39,3.62.07,3.62-2.85s.54-6.19.04-9.05c.23-.03.47-.06.73-.08,0,0,1.58-.44,2.16,2.48.57,2.93,0,6.41,0,9.34Z"/>
  <path class="cls-6" d="M107.97,47.47c0,1-.81,1.81-1.81,1.81s-1.81-.81-1.81-1.81.81-1.81,1.81-1.81,1.81.81,1.81,1.81Z"/>
  <path class="cls-5" d="M22.48,17.75c-1.27.26-2.73.46-3.83.19-.23-.11-.5-.23-.83-.35-.01,0-.01-.01-.02-.01-.3-.21-.53-.51-.66-.9,0,0,2.05.51,3.26-.46,1.21-.97,1.25-3.23,1.16-7.92-.04-2.3-.55-3.77-1.31-4.53.27,0,.57.01.89.02,0,0,1.91-.45,2.61,1.14.7,1.58.32,4.44.39,8,.07,3.55.44,4.38-1.65,4.83Z"/>
  <path class="cls-7" d="M74.92,24.07c.07-.69.31-1.44.85-2.19,1.73-2.41,4.5-.45,4.72-.29.01,0,.01.01.01.01,1.33,2.02,2.53,3,3.49,3.43-.9-.12-1.98-.41-3.05-1.01-1.87-1.07-4.62-1.41-6.02.04Z"/>
  <path class="cls-7" d="M132.49,65.54c-3.33,5.84-9.18,1.53-9.18,1.53,0,0,1.25,2.78-1.53,4.87-2.77,2.08-3.06.97-3.06.97,0,0,0,4.17-4.86,5.84-4.39,1.51-8.79-.73-9.6-1.18-.09-.04-.13-.08-.13-.08,0,0-1.25,5.57-4.31,5.57s-2.92-2.93-2.92-2.93c0,0-4.73,8.21-14.74,7.51-10.01-.69-10.98-10.98-10.98-10.98,0,0-3.89,1.11-5.98-1.82-2.08-2.92-.69-7.65-.69-7.65,0,0-3.2-1.25-3.61-3.75-.09-.51-.09-1.05,0-1.63,2.37-.07,7.84.67,7.84.67,0,0-3.26,9.13,0,10.69,3.27,1.55,5.29-3.54,5.29-3.54,0,0-.66,12.99,7.78,13.49,8.44.48,13-8.53,13-8.53,0,0,4.98,6.74,6.33,3.85.67-1.45.68-2.12.52-2.42.53.22,1.49.56,2.72.75,1.82.3,4.21.26,6.6-.99,4.93-2.57,4.5-5.7,4.5-5.7,0,0,3.77,1.53,4.96-.45,1.19-1.99,1.35-4.76,1.35-4.76,0,0,6.19,3.71,7.37-6.93,1.12-10.19-10.26-16.51-11.24-17.04.53.24,4,1.73,5.16-1.02,1.25-2.97-1.06-1.98-4.22-7.73-3.18-5.74-2.19-4.96-11.66-8.53-9.47-3.58-11.95-1.6-17.21-5.57-4.51-3.41-10.85-2.27-10.33,1.47-.2-.65-.36-1.42-.41-2.24-.14-2.37,1.8-6.12,5.84-5.57,4.03.56,5.14,3.06,12.09,5.7,6.95,2.65,15.58,1.12,20.86,5.57,5.28,4.44,5.84,10.29,10.29,15.44,0,0,3.48,2.64,1.95,5.28-1.53,2.64-3.75.84-3.75.84,0,0,.69,1.53,2.92,5.7,2.23,4.17,6.4,9.46,3.06,15.29Z"/>
  <path class="cls-7" d="M83.99,25.04c1.34.19,2.33.01,2.5-.01-.14.1-1.07.66-2.5.01Z"/>
  <path class="cls-7" d="M101.65,76.05c-.35-.14-.53-.24-.52-.24.02,0,.36-.06.52.24Z"/>
  <path class="cls-5" d="M90.66,151.23c-14.28,2.18-28.41-2.1-34.56-6.77-2.04-1.54-2.94-3.97-3.05-6.79,3.78,3.52,11.39,9.48,18.77,8.64,10.39-1.2,24.6-2.07,20.03-15.64-3.92-11.63-11.75-23.07-17.27-24.72,2.19-.65,4.51-.78,6.92-.18,8.72,2.18,15.37,14.71,19.84,23.98,4.48,9.26,3.6,19.29-10.68,21.48Z"/>
  <path class="cls-4" d="M67.15,84.66c-1.41,4.66-2.57,9.15-6.29,8.98-3.72-.18-3.42-4.94,0-8.11,3.42-3.17,6.28-1.69,6.28-1.69,0,0,.68-1.43,0,.83Z"/>
  <path class="cls-4" d="M55.29,96.46s-11.27,7.87-12.59,12.01c-1.33,4.14.58,6.63,2.65,7.25,2.07.62.5-1.56-.08-4.15-.58-2.6-.66-3.09,2.73-6.41s11.85-9.53,7.29-8.7Z"/>
  <path class="cls-4" d="M36.4,169.49c-5.32,9.9-3.48,20.72-6.6,22.92-3.12,2.2-4.58,2.11-4.22-1.15.37-3.25,3.12-11.14,5.87-15.54s4.95-6.23,4.95-6.23Z"/>
  <path class="cls-4" d="M107.2,186.35c7.12,8.44,19.58,12,23.8,14.07,4.23,2.07,2.7,5.98-4.42,4.01-7.11-1.97-14.46-11.57-16.48-13.17-2.02-1.6-2.91-4.91-2.91-4.91Z"/>
  <path class="cls-7" d="M197.2,123.37c-1.1,1.93-3.85,1.65-3.85,1.65,0,0-.28,4.13-2.75,4.68-2.48.55-5.23-1.36-5.23-1.36-.08.22-1.01,2.74-5.23,2.74s-6.6-1.65-6.6-1.65c0,0-4.95,2.35-7.21-.79,3.14.15,3.63-1.96,3.63-1.96,0,0,3.58,2.75,6.88,1.77,3.3-.98,4.43-3.86,4.43-3.86,0,0,5.1,2.37,7.12,0,2.01-2.37.29-4.6.29-4.6,0,0,3.93.73,4.11-2.39.19-3.11-5.69-16.87-9.71-21.78-3.92-4.76-8.5-8.59-8.79-8.82.08.2,1.05,2.61-.01,3.95-1.1,1.4-3.49-1.58-3.49-1.58,0,0,4.21-1.1-5.86-6.24-9.45-4.81-29.52-4.3-38.35-.18-.05-2.45,1.98-5.02,7.36-6.33,9.08-2.2,15.95-6.05,34.1,1.93,3.81,1.67,7.34,4.52,10.55,8.01,12.09,13.16,19.47,35.3,18.6,36.82Z"/>
  <path class="cls-7" d="M117.38,142.33c.47-.12.93-.36,1.23-.75.34-.44.44-1.03.43-1.59-.02-.84-.29-1.7-.85-2.32-1.32-1.46-3.91-.81-4.42,1.11-.56,2.07,1.65,4.03,3.62,3.55Z"/>
  <path class="cls-7" d="M128.4,118.33c.56.74,1.46,1.24,2.38,1.21.92-.03,1.83-.65,2.09-1.54.23-.79-.04-1.65-.53-2.32-.49-.66-1.16-1.15-1.83-1.64-.31-.22-.62-.45-.98-.58-.36-.13-.77-.16-1.11.01-.35.18-.57.54-.67.92-.33,1.27-.17,2.87.63,3.93Z"/>
  <path class="cls-7" d="M125.18,109.91c1.53.42,3.36-.04,4.22-1.37.87-1.35.54-3.16-.23-4.57-.82-1.51-2.17-2.81-3.84-3.25-1.67-.44-3.63.1-4.6,1.53-1.94,2.85,1.78,6.94,4.45,7.66Z"/>
  <g class="cls-10">
    <path class="cls-4" d="M70.5,112.46s-6.56,13.77-7.68,20.55c-1.12,6.78-5.63,4.39-6.22.72-.59-3.67,2.35-6.25,5.46-12.38,3.12-6.14,8.43-8.89,8.43-8.89Z"/>
  </g>
  <path class="cls-5" d="M97.97,39.32c.15.24,2.12,3.4-2.57,4.95-4.88,1.6-5.41-4.49-5.41-4.49,0,0-1.12,2.32-3.5,2s-2.5-4.16-2.5-4.16c0,0-10.35,1.02-13.49,9.84-1.73,4.88-2.21,8.58-2.29,10.91-.25-1.38-.37-2.87-.37-4.51,0-16.55,17.25-16.96,17.25-16.96,0,0-.42,3.2,1.66,3.61,2.09.42,3.2-2.08,3.2-2.08,0,0,.27.42.84,2.37.55,1.95,2.5,4.03,5.28,2.5,2.68-1.47.85-5.14.7-5.41.19.08,2,.9,3.19-.29,1.25-1.25.14-2.22.14-2.22.42,0,.83.01,1.23.03,1,4.97-3.11,3.97-3.37,3.92Z"/>
</svg>