<?xml version="1.0" encoding="UTF-8"?>
<svg id="Layer_1" data-name="Layer 1" xmlns="http://www.w3.org/2000/svg" viewBox="0 0 178.7 231.24">
  <defs>
    <style>
      .cls-1 {
        fill: #ffaa8e;
      }

      .cls-1, .cls-2, .cls-3, .cls-4, .cls-5, .cls-6, .cls-7, .cls-8, .cls-9, .cls-10, .cls-11, .cls-12 {
        stroke-width: 0px;
      }

      .cls-2 {
        fill: #ffd7b5;
      }

      .cls-3 {
        fill: #002141;
      }

      .cls-4 {
        fill: #f33528;
        opacity: .4;
      }

      .cls-5 {
        fill: #fff;
      }

      .cls-6 {
        opacity: .67;
      }

      .cls-6, .cls-9 {
        fill: #0680af;
      }

      .cls-7 {
        fill: #e57d62;
      }

      .cls-8 {
        fill: #d2dfea;
      }

      .cls-9 {
        opacity: .36;
      }

      .cls-10 {
        fill: #ffb39b;
      }

      .cls-11 {
        fill: #ff8043;
      }

      .cls-12 {
        fill: #2cbad2;
      }
    </style>
  </defs>
  <path class="cls-12" d="M142.08,222.68c-1.58,1.88-4.24.18-4.46.03.08.15,1.44,2.67-1.8,3.8-2.89,1.01-5.92-2.17-5.92-2.17-.09.24-1.44,3.81-4.01,3.81s-4.13-2.49-4.13-2.49c0,0-.63,4.02-5.25,4.01-4.54-.02-5.55-2.88-5.55-2.88,0,0-4.85,4.2-9.22,1.08-.4-.28-.76-.66-1.07-1.11-1.5-2.11-1.83-5.79,1.52-8.07,2.77-1.89,4.41-4.65,5.7-7.94.61-1.55,1.15-3.21,1.69-4.95,0,0,1.51-1.02,3.73-2.3,4.01-2.33,10.33-5.51,14.32-5.08,4.49.49,6.48,1.56,7.59,3.38.43.68.74,1.49,1,2.41.95,3.33,1.25,5.39,3.39,10.12,2.14,4.74,4.09,6.38,2.46,8.34Z"/>
  <path class="cls-9" d="M142.08,222.68c-1.58,1.88-4.24.18-4.46.03.08.15,1.44,2.67-1.8,3.8-2.89,1.01-5.92-2.17-5.92-2.17-.09.24-1.44,3.81-4.01,3.81s-4.13-2.49-4.13-2.49c0,0-.63,4.02-5.25,4.01-4.54-.02-5.55-2.88-5.55-2.88,0,0-4.85,4.2-9.22,1.08-.4-.28-.76-.66-1.07-1.11.65-.08,1.44-.15,2.42-.19,4.09-.22,6.14-3.21,6.14-3.21,0,0,1.73,3.43,5.6,2.56,3.88-.88,5.49-4.12,5.49-4.12,0,0,1.43,3.85,4.82,2.84,3.4-1.02,3.41-3.84,3.41-3.84,0,0,3.18,4.98,5.68,2.98,2.4-1.9,1.13-4.4,1.01-4.62.32.12,4.91,1.94,3.26-1.49-1.71-3.56-6.97-7.39-6.97-7.39,0,0-1.14,2.27-3.98,2.09-2.84-.17-3.13-.35-3.13-.35,0,0-2.27,2.52-6.25,2-3.98-.52-5.25-1.65-5.25-1.65,0,0-2.52-.98-5.05-1.63.61-1.55,1.15-3.21,1.69-4.95,0,0,1.51-1.02,3.73-2.3,4.54-1.22,16.43-1.59,21.92-1.71.43.68.74,1.49,1,2.41.95,3.33,1.25,5.39,3.39,10.12,2.14,4.74,4.09,6.38,2.46,8.34Z"/>
  <path class="cls-12" d="M87.73,226.68c-.39,1.44-1.58,2.48-3.75,3.08-4.05,1.13-6.24-1.91-6.24-1.91-.09.23-1.08,2.79-4.26,3.06-3.34.28-4.88-1-5.04-1.38s-2.69,1.78-4.9,1.71c-2.19-.07-2.88-1.94-2.88-1.94,0,0-1.84,1.18-4.22.61-2.38-.58-2.94-2.73-2.94-2.73,0,0-1.4.25-3.05-.9-.95-.66-2.09-1.92-1.77-3.52.22-1.18,1.19-2.55,3.58-4,2.86-1.75,4.41-3.38,5.34-5.73.91-2.3,1.23-5.29,1.61-9.73,0,0,5.31-2.31,11.14-2.31,1.65,0,3.34.18,4.97.66.51.15,1.01.33,1.51.53,5.2,2.19,4.5,3.16,4.12,5.37-.18,1.03-.3,2.35.32,4.22,1.92,5.78,3.92,6.51,5.67,10.38.81,1.78,1.1,3.31.78,4.54Z"/>
  <path class="cls-9" d="M87.73,226.68c-.39,1.44-1.58,2.48-3.75,3.08-4.05,1.13-6.24-1.91-6.24-1.91-.09.23-1.08,2.79-4.26,3.06-3.34.28-4.88-1-5.04-1.38s-2.69,1.78-4.9,1.71c-2.19-.07-2.88-1.94-2.88-1.94,0,0-1.84,1.18-4.22.61-2.38-.58-2.94-2.73-2.94-2.73,0,0-1.4.25-3.05-.9-.95-.66-2.09-1.92-1.77-3.52.41.15.84.34,1.3.6,2.98,1.71,5.55.57,5.55.57,0,0-.72,3.83,1.41,3.83s4.55-1.89,4.55-1.89c0,0-.28,4.27,2.71,2.89,2.99-1.39,4.05-5.12,4.05-5.12,0,0,.07,4.68,1.68,4.83,1.6.15,5.5.57,5.78-2.6.3-3.18-.42-4.22-.42-4.22l1.71-.99s.28,2.98,1.14,4.25c.85,1.28,4.4,2,4.83-2.84.43-4.82-5.55-8.05-5.55-8.05,0,0-2.55,1.66-9.16.66-6.26-.94-5.82-3.67-5.76-3.96-.1.25-1.06,2.16-4.87,2.3.91-2.3,1.23-5.29,1.61-9.73,0,0,5.31-2.31,11.14-2.31h4.34l.63.66,5.63,5.9c-.18,1.03-.3,2.35.32,4.22,1.92,5.78,3.92,6.51,5.67,10.38.81,1.78,1.1,3.31.78,4.54Z"/>
  <path class="cls-8" d="M139.63,208.1c-.6.33-1.18.55-1.75.69-4.37,1.13-7.55-2.5-7.55-2.5,0,0-1.11,2.54-3.04,2.67-1.93.14-2.74-.45-2.74-.45,0,0-2.69,3.93-7.25,3.48-4.55-.45-5.33-2.47-5.33-2.47,0,0-1.21,1.25-3.81,1.05-2.46-.19-3.87-.23-4.81-3.91-.06-.2-.11-.42-.16-.65-.94-4.32,4.98-11.85,6.58-29.51.75-8.37.07-16.7-.86-23.15-.64-4.32-1.36-7.8-1.85-9.88-.32-1.38-.53-2.14-.53-2.14l.65-.02,17.64-.61s.27,7.59,3.01,28.2c2.74,20.6,10.52,28.32,13.3,31.22,2.8,2.91,3.73,5.17-1.5,7.99Z"/>
  <path class="cls-9" d="M139.63,208.1c-.6.33-1.18.55-1.75.69-4.37,1.13-7.55-2.5-7.55-2.5,0,0-1.11,2.54-3.04,2.67-1.93.14-2.74-.45-2.74-.45,0,0-2.69,3.93-7.25,3.48-4.55-.45-5.33-2.47-5.33-2.47,0,0-1.21,1.25-3.81,1.05-2.46-.19-3.87-.23-4.81-3.91.44.19.89.36,1.33.5,3.27,1,4.9-1.35,4.9-1.35,0,0,2.22,2.49,5.91,2.06,3.71-.42,4.83-2.96,4.83-2.96,0,0,2.13,1.82,4.14.98,2-.86,3.1-4.27,3.1-4.27,0,0,5.12,2.71,6.5-.63s-5.22-5.06-9.61-17.42c-4.39-12.36-5.57-33.82-5.57-33.82,0,0-3.82,3.94-9.98,3.6-.64-4.32-1.36-7.8-1.85-9.88l.11-2.16.08-1.4,10.68-7.67,8.55,6.15-1.66,2.31s.27,7.59,3.01,28.2c2.74,20.6,10.52,28.32,13.3,31.22,2.8,2.91,3.73,5.17-1.5,7.99Z"/>
  <path class="cls-8" d="M83.06,211.44c-4.5.25-6.05-2.32-6.05-2.32,0,0-2.32,4.12-7.61,3.09-5.29-1.03-5.67-4.51-5.67-4.51,0,0-6.43,6.45-10.43,2.83-1.66-1.5-2.06-3.06-1.46-5.47.84-3.39,3.64-8.44,7.63-17.33,5.81-12.94,8.64-27.08,8.64-39.18h0c0-2.14-.09-4.2-.26-6.17l13.14.64s-1.55,7.73-.9,23.07c.64,15.33,4.76,31.05,6.82,35.16.47.93.75,1.94.86,2.97.4,3.5-1.24,7.01-4.73,7.22Z"/>
  <path class="cls-9" d="M83.06,211.44c-4.5.25-6.05-2.32-6.05-2.32,0,0-2.32,4.12-7.61,3.09-5.29-1.03-5.67-4.51-5.67-4.51,0,0-6.43,6.45-10.43,2.83-1.66-1.5-2.06-3.06-1.46-5.47,1.14.59,2.59.91,4.38.52,5.25-1.14,6.39-4.6,6.39-4.6,0,0,2.71,7.03,7.3,6.31,4.59-.7,6.58-2.39,6.58-2.39,0,0,6.73.83,4.04-8.27-2.71-9.1-6.25-10.8-6.25-10.8,0,0,2.98-.85,0-3.26-2.98-2.42-2-2.99-2-2.99,0,0,1.85,1.28,2-.28.14-1.57-1.85-2.27-1.43-8.09.43-5.83,1.43-23.89,1.43-23.89,0,0-3.02,1.75-6.16,1.24h0c0-2.14-.09-4.2-.26-6.17l13.14.64s-1.55,7.73-.9,23.07c.64,15.33,4.76,31.05,6.82,35.16.47.93.75,1.94.86,2.97.4,3.5-1.24,7.01-4.73,7.22Z"/>
  <g>
    <path class="cls-12" d="M37.14,16.14c.2,1.31-1.51,1.82-2.13,4.05-.6,2.23-1.11,3.84-1.61,6.78-.51,2.93-.81,3.96-2.33,6.99-.98,1.97-3.23,3.16-4.7,3.76h0c-.81.33-1.38.49-1.38.49,0,0-.4-1.8-.51-3.98-.08-1.14-.07-2.38.1-3.51.51-3.34,1.83-6.07,1.83-6.07,0,0,.27-.14.63-.39.05-.03.09-.07.14-.1.55-.42,1.23-1.09,1.46-1.94.41-1.52.82-2.43,1.73-4.15.81-1.53,2.01-2.9,3.62-3.18.2-.03.42-.06.64-.06,1.92,0,2.32,0,2.52,1.32Z"/>
    <path class="cls-12" d="M27.33,30.2c.03.68.05,1.4.02,2.1-.06,2.03-.38,4.05-.98,5.41h0c-.32.7-.7,1.23-1.17,1.5,0,0-.41,1.31-2.33,2.13-1.92.81-4.35.5-8.61.3-4.25-.2-6.88-1.11-8.5-2.63-1.61-1.52-1.11-3.14-2.02-6.07-.11-.39-.23-.83-.32-1.32-.41-2.19-.51-5.24.01-7.5.25-1.08.65-1.98,1.22-2.52.24-.23.5-.42.8-.58.55-.32,1.19-.55,1.92-.72h.01c.24-.06.48-.11.74-.16,1.85-.33,4.16-.38,6.71-.49h.01c.44-.03.9-.06,1.35-.08,1.33-.08,2.56-.07,3.68.03.18.01.36.03.55.06.02,0,.05,0,.07.01,1.94.23,3.52.73,4.65,1.51.45.31.83.66,1.13,1.06.09.11.17.24.25.36.31.51.51.98.65,1.44h0s.01.08.02.1c.43,1.65-.01,3.26.15,6.05Z"/>
    <path class="cls-12" d="M28.44,6.62c-.09,1.53-1.68,12.3-2.18,15.62-.09.61-.15.98-.15.98,0,0-.01.01-.02.01h0c-.45.33-7.36,5.1-13.04,3.93-5.87-1.22-9.5-2.63-9.5-2.63,0,0-.05-.15-.11-.42-.39-1.36-1.66-5.76-2.93-8.89C.08,14.18-.06,13.2.02,12.4c.2-2.09,1.82-3.07,3.42-1.32,2.08,2.26,3.72,8.41,3.92,9.22.01.06.02.09.02.09l.73-.25.49-.16s-2.23-11.23-2.23-12.55c0-.13,0-.25.01-.38.01-.2.02-.39.05-.56,0-.07.01-.14.02-.2.01-.11.03-.23.07-.34.15-.61.45-1.18,1.03-1.58.16-.1.33-.2.53-.28,1.52-.6,2.74-.4,3.55,1.52.59,1.42,2.08,8.58,2.82,12.22.09.45.14.72.14.72.09.48.17.85.23,1.1.03.22.06.33.06.33,0,0-.01-.11-.05-.33-.23-2.06-1.48-13.15-1.07-17.26.07-.74.19-1.26.4-1.44,1.42-1.31,4.15-1.22,4.87,0,.61,1.06,1.23,14.71,1.38,18.28.01.17.01.31.01.43.01.02.01.03,0,.06.01.02.01.06.01.08.01.18.01.28.01.28,0,0,.02-.15.05-.41.25-2.04,1.33-11.05,1.78-12.85.45-1.83,1.41-2.59,2.73-2.64.12-.01.26-.01.41,0,1.51.1,3.14.61,3.04,2.43Z"/>
  </g>
  <path class="cls-6" d="M37.14,16.14c.2,1.31-1.51,1.82-2.13,4.05-.6,2.23-1.11,3.84-1.61,6.78-.51,2.93-.81,3.96-2.33,6.99-.98,1.97-3.23,3.16-4.7,3.76h0c-.32.7-.7,1.23-1.17,1.5,0,0-.41,1.31-2.33,2.13-1.92.81-4.35.5-8.61.3-4.25-.2-6.88-1.11-8.5-2.63-1.61-1.52-1.11-3.14-2.02-6.07-.11-.39-.23-.83-.32-1.32,1.16.53,2.61,1.09,4.35,1.56,5.12,1.39,8.74-1.53,8.74-1.53,0,0,.35,1.28,2.9,2.42,1.28.57,3.21.81,5.07.16,1-.35,1.99-.97,2.86-1.92.73-.82,1.39-1.9,1.88-3.29,2.13-6.01.57-5.6,3.41-11.02.75-1.43,1.18-2.44,1.34-3.13.2-.03.42-.06.64-.06,1.92,0,2.32,0,2.52,1.32Z"/>
  <path class="cls-6" d="M5.44,21.01c-.19-1.06-1.02-5.07-2.36-7.33-.89-1.5-2.16-1.82-3.06-1.28.2-2.09,1.82-3.07,3.42-1.32,2.08,2.26,3.72,8.41,3.92,9.22h.01c.01.06.01.09.01.09l-1.89.89s-.01-.09-.06-.26Z"/>
  <path class="cls-6" d="M7.56,4.37c.16-.1.33-.2.53-.28,1.52-.6,2.74-.4,3.55,1.52.59,1.42,2.08,8.58,2.82,12.22.09.45.14.72.14.72,0,0-1.85.32-2.71-.82-.85-1.14-.7-3.71-1.42-8.67-.49-3.38-1.89-4.99-2.91-4.68Z"/>
  <path class="cls-6" d="M13.77,2.39c.07-.74.19-1.26.4-1.44,1.42-1.31,4.15-1.22,4.87,0,.61,1.06,1.23,14.71,1.38,18.28.01.17.01.31.01.43.01.02.01.03,0,.06.01.02.01.06.01.08.01.18.01.28.01.28,0,0-.25-.13-.57-.48-.43-.45-.98-1.3-1.3-2.74-.57-2.55,0-6.11-.86-10.8-.57-3.15-2.61-4.24-3.94-3.67Z"/>
  <path class="cls-6" d="M25.53,10.34c.43-3.08.11-5.09-.53-6.15.12-.01.26-.01.41,0,1.51.1,3.14.61,3.04,2.43-.09,1.53-1.68,12.3-2.18,15.62.09.11.17.24.25.36.31.51.51.98.65,1.44h0c-.05.08-.08.15-.11.2-.33.52-.58.8-.63.39-.03-.4-.15-.89-.33-1.4h0c-.23-.67-.55-1.39-.95-2.06-.2-.36-.44-.72-.69-1.05-1.09-1.42.09-2.71,1.09-9.8Z"/>
  <path class="cls-8" d="M58.75,85.44c-2.42,3.21-6.23,4.2-10.14,4.66-1.93.23-3.89.33-5.71.5-3.9.36-9.54,1.81-18.12-3.51-1.77-1.09-3.66-2.47-5.68-4.21-.47.31-1.23.28-2.09.11-1.93-.39-1.67-2.06-1.67-2.06,0,0-.26,2.83-1.93,1.93-1.67-.91-1.42-3.35-1.42-3.35,0,0-1.16,3.09-2.57,1.16-.22-.3-.38-.61-.49-.97-.57-1.72-.23-4.32-.72-8.87C-.35,57.36,1.17,41.74,2.41,35.76c.3-1.47.58-2.35.69-2.49.64-.77,3.08,3.74,6.43,4.25,3.35.51,6.45-.39,6.45-.39,0,0,1.02,1.42,5.92,1.28,4.23-.1,6.63-2.52,7.96-2.52.2,0,.39.07.55.2,1.16,1.03-.9,9.54.13,19.07,1.03,9.54,5.02,17.01,12.76,18.29,7.73,1.3,17.13-1.53,17.13-1.53,0,0,1.93,8.75-1.67,13.52Z"/>
  <path class="cls-8" d="M145.84,104s2.58,9.4,1.03,13.79c-1.55,4.38.39,5.8-.39,11.07-.77,5.29-5.29,6.57-5.29,6.57,0,0,.91,6.7-6.31,9.02-7.21,2.32-9.14-.12-9.14-.12,0,0-2.07,3.35-5.93,2.97-2.46-.25-3.67-1.17-4.21-1.82-.33-.36-.43-.64-.43-.64,0,0-.11.25-.34.64-.69,1.15-2.46,3.46-5.46,3.37-3.99-.14-6.7-3.74-6.7-3.74,0,0-4.89,7.61-13.01,6.18-8.12-1.42-7.34-5.29-7.34-5.29,0,0-1.03.91-2.58.26-1.43-.6-.99-1.41-.91-1.53-.19.09-2.31,1.11-4.76.38-2.57-.77-2.71-2.19-2.71-2.19,0,0-4.76,2.71-8.37.39s-3.99-7.47-3.99-7.47c0,0-4.13,3.09-8.5-3.6-.76-1.16-1.21-2.47-1.4-3.84-.99-6.53,3.33-14.45,3.33-14.45,0,0-2.32.12-4.25-1.81-1.93-1.93-2.97-6.57-.52-10.3,2.46-3.74,4.25-7.34,7.22-19.46,2.56-10.44,12.76-23.07,15.53-26.36.45-.53.7-.82.7-.82,0,0,36.32-3.99,42.51-4.89.63-.09,1.31-.14,2.01-.14,6.31,0,15.41,3.38,17.83,5.93,2.71,2.83,3.48,9.91,3.48,9.91,0,0,3.62,2.19,6.45,7.86,2.83,5.67.39,7.48.39,7.48,0,0,3.87,6.18,4.64,11.98.77,5.8-2.58,10.69-2.58,10.69Z"/>
  <path class="cls-9" d="M145.84,104s2.58,9.4,1.03,13.79c-1.55,4.38.39,5.8-.39,11.07-.77,5.29-5.29,6.57-5.29,6.57,0,0,.91,6.7-6.31,9.02-7.21,2.32-9.14-.12-9.14-.12,0,0-2.07,3.35-5.93,2.97-2.46-.25-3.67-1.17-4.21-1.82,3.67-.07,7.3-1.9,9.55-7.55,2.41-6.05,1.73-7.59,1.73-7.59,0,0,7.79,2.93,6.34-6.16-1.46-9.1-11.06-19.13-11.06-19.13,0,0,4.85,2.01,6.96-3.04,2.06-4.92-2.02-11.71-2.23-12.05.33.1,6.53,2.13,7.17-2.44.68-4.7-2.24-10.52-2.24-10.52,0,0-1,1-4.95,1.83-3.95.83-8.13-.42-8.13-.42,0,0-1.57,3.57-5.73,3.13-4.17-.43-3.65-3.13-3.65-3.13,0,0-2.56,5.98-9.72,6.83-7.17.85-17.28-3.56-23.16-12.93,0,0-4.56-9.71-6.08-16.31-.67-2.85-.76-5.13.31-5.79,2.01-1.25,25.17-1.1,44.93-.74v.68c6.3,0,15.39,3.38,17.82,5.93,2.71,2.83,3.48,9.91,3.48,9.91,0,0,3.62,2.19,6.45,7.86,2.83,5.67.39,7.48.39,7.48,0,0,3.87,6.18,4.64,11.98.77,5.8-2.58,10.69-2.58,10.69Z"/>
  <path class="cls-8" d="M130.08,56.76s2.54,6.28-2.21,11.89c-4.73,5.6-13.21,2.19-13.21,2.19,0,0,.77,2.32-2.97,3.19-3.54.84-3.24-1.36-3.21-1.63-.36.51-7.59,10.72-20.69,8.89-13.43-1.86-14.86-13.87-14.86-13.87,0,0-1.76-.33-3.52-3.74-.6-1.17-.78-2.3-.74-3.26.05-1.84.85-3.13.85-3.13,0,0-4.4-.77-6.49-5.29-2.09-4.51,1.1-8.14,4.29-12.11,3.19-3.96,1.43-8.8,4.74-15.08,3.3-6.28,8.25-6.72,8.37-7.05.05-.14-.35-1.33-.45-2.68-.16-1.89.25-4.08,3.21-4.14,5.06-.11,7.15,2.85,7.15,2.85,0,0-.44-.89-.82-2.16-.33-1.09-.6-2.46-.5-3.79.01-.18.05-.36.1-.53.68-2.51,4.73-3.82,7.61-1.44,3.08,2.54,5.5,2.75,15.96,6.94s11.12,14.76,13.1,19.16c.93,2.06,2.32,3.23,3.55,4.06,1.39.94,2.56,1.44,2.61,2.33.11,1.65-1.53,1.76-1.53,1.76,0,0,6.28,3.18,6.82,11.12.56,7.92-7.15,5.5-7.15,5.5Z"/>
  <path class="cls-9" d="M130.08,56.76s2.54,6.28-2.21,11.89c-4.73,5.6-13.21,2.19-13.21,2.19,0,0,.77,2.32-2.97,3.19-3.54.84-3.24-1.36-3.21-1.63-.36.51-7.59,10.72-20.69,8.89-13.43-1.86-14.86-13.87-14.86-13.87,0,0-1.76-.33-3.52-3.74-.6-1.17-.78-2.3-.74-3.26.34.6.77,1.41,1.33,2.34,1.35,2.27,3.85,2.14,3.85,2.14,0,0-.72,11.51,13.18,12.93,13.89,1.42,19.35-9.85,19.35-9.85,0,0,2.11,4.4,5.7,2.6,1.86-.93,1.9-2.43,1.5-3.66,1.36,1.72,4.14,3.54,9.29,1.06,8.06-3.88,3.06-12.79,2.82-13.21.33.1,6.71,2.15,6.75-4.22.05-6.33-9.11-10.6-9.69-10.86.41.1,5.14,1.34,6.09-1.5.41-1.23.22-1.68-.41-2.06-.89-.52-2.63-.86-4.71-2.97-3.56-3.58-3.27-11.2-11.65-15.59-8.37-4.4-12.94-3.99-17.06-8.25-2.17-2.25-4.62-2.72-5.9-2,.68-2.51,4.73-3.82,7.61-1.44,3.08,2.54,5.5,2.75,15.96,6.94s11.12,14.76,13.1,19.16c.93,2.06,2.32,3.23,3.55,4.06,1.39.94,2.56,1.44,2.61,2.33.11,1.65-1.53,1.76-1.53,1.76,0,0,6.28,3.18,6.82,11.12.56,7.92-7.15,5.5-7.15,5.5Z"/>
  <path class="cls-9" d="M79.98,15.1c-.16-1.89.25-4.08,3.21-4.14,5.06-.11,7.15,2.85,7.15,2.85,0,0-.44-.89-.82-2.16,3.73,4.46,4.8,5.93,4.8,5.93,0,0-2.41.14-5.25-2.07-2.44-1.89-6.54-4.24-9.08-.42Z"/>
  <path class="cls-9" d="M112.47,64.93c.11.13.77.97,1.11,2-.74-.93-1.07-1.84-1.11-2Z"/>
  <path class="cls-12" d="M126.89,47.83c0,7.28-3.52,19.82-25.21,20.16-8.94.14-15.52-1.21-20.16-3.58,0-.01-.01-.01-.02-.02-7.07-3.64-9.61-9.72-9-16.77,1.1-12.94,14.21-16.29,14.21-16.29,0,0,.66,3.97,4.62,3.19,3.18-.63,3.1-3.51,2.94-4.63.18.88.69,2.74,1.8,2.31,1.28-.49,1.76-2.66,1.85-3.1-.09.67-.55,5.42,3.54,5.42,4.4,0,6.61-5.29,6.61-5.29.35.05.7.1,1.06.17,10.55,2,17.77,11.39,17.77,18.43Z"/>
  <path class="cls-3" d="M91.77,41.67c0,2.68-2.17,4.84-4.84,4.84s-4.84-2.17-4.84-4.84,2.17-4.84,4.84-4.84,4.84,2.17,4.84,4.84Z"/>
  <path class="cls-8" d="M87.04,39.69c0,.85-.69,1.54-1.54,1.54s-1.54-.69-1.54-1.54.69-1.54,1.54-1.54,1.54.69,1.54,1.54Z"/>
  <circle class="cls-3" cx="112.36" cy="41.67" r="4.84"/>
  <path class="cls-8" d="M112.47,39.69c0,.85-.69,1.54-1.54,1.54s-1.54-.69-1.54-1.54.69-1.54,1.54-1.54,1.54.69,1.54,1.54Z"/>
  <path class="cls-5" d="M90.5,55.84s-1.3-3.89-2.21-5.22-2.18.76-2.28,2.09c-.09,1.33-.03,2.12-.03,2.12,0,0,.66.22,2.25.6,1.58.38,2.28.41,2.28.41Z"/>
  <path class="cls-5" d="M110.02,56.28c1.64-.06,4.14-.6,4.14-.6,0,0,.09-3.76-1.55-4.87-1.64-1.11-2.59,5.47-2.59,5.47Z"/>
  <path class="cls-12" d="M117.93,132.24c-9.66,4.89-23.45,4.64-33.12,2.96-5.42-.93-9.86-3.49-11.99-7.38-.51-.94-.9-1.97-1.13-3.07-.51-2.43-.24-5.23,1.01-8.36,4.13-10.31,11.2-25.13,23.43-25.13,1.09,0,2.14.08,3.13.22,1,.15,1.96.35,2.88.64,7.41,2.19,12.28,8.31,16.61,14.29,6.65,9.17,8.83,20.93-.82,25.83Z"/>
  <path class="cls-3" d="M85.71,54.77c1.17.32,2.36.57,3.55.78,1.19.23,2.38.42,3.59.57,2.4.31,4.82.45,7.24.45,2.42.04,4.84-.04,7.26-.2,2.41-.19,4.83-.42,7.22-.82-2.37.54-4.78.86-7.2,1.06-2.42.21-4.85.32-7.28.32-2.43-.04-4.86-.22-7.27-.57-2.41-.33-4.79-.83-7.1-1.58Z"/>
  <path class="cls-9" d="M58.75,85.44c-2.42,3.21-6.23,4.2-10.14,4.66.66-.98,1.42-2.05,2.22-3.02,2.48-3.06,4.83-11.37-.85-10.66-5.68.7-13.93-.14-20.75-10.36-6.82-10.21-3.98-24.19-3.98-24.19,0,0-2.84.73-6.25,0-3.41-.72-3.77-2.17-3.77-2.17,0,0-1.76.63-5.47,0-3.18-.53-5.31.53-7.34-3.93.3-1.47.58-2.35.69-2.49.64-.77,3.08,3.74,6.43,4.25,3.35.51,6.45-.39,6.45-.39,0,0,1.02,1.42,5.92,1.28,4.23-.1,6.63-2.52,7.96-2.52.2,0,.39.07.55.2,1.16,1.03-.9,9.54.13,19.07,1.03,9.54,5.02,17.01,12.76,18.29,7.73,1.3,17.13-1.53,17.13-1.53,0,0,1.93,8.75-1.67,13.52Z"/>
  <path class="cls-9" d="M11.98,79.52s-1.16,3.09-2.57,1.16c-.22-.3-.38-.61-.49-.97.99.26,1.81-.27,2.16-1.32.53-1.57.91-2.77,1.05-3.21-.18.72-.81,3.44-.15,4.33Z"/>
  <path class="cls-9" d="M24.78,87.09c-1.77-1.09-3.66-2.47-5.68-4.21-.47.31-1.23.28-2.09.11-1.93-.39-1.67-2.06-1.67-2.06,0,0-.26,2.83-1.93,1.93-1.67-.91-1.42-3.35-1.42-3.35.76,1.01,1.06,1.64,2.61.26.72-.64,1.07-1.38,1.25-1.98-.03.97.16,2.22,1.26,2.77,1.77.9,3.16-.44,3.32-.59-.1.22-1.09,2.5,2.69,4.39,1.24.63,1.73,1.63,1.66,2.72Z"/>
  <path class="cls-9" d="M15.85,77.8c.02-.7.16-1.25.16-1.25,0,0,.05.53-.16,1.25Z"/>
  <path class="cls-8" d="M86.16,100.84c-6.14,5.3-11.33,14.71-11.68,17.08-1.75,11.72,7.86,10.56,7.4,6.99-1.07-8.39,1.54-14.65,3.9-20.15,2.58-6.02.38-3.93.38-3.93Z"/>
  <path class="cls-9" d="M103.09,140.69s5.81,4.5,11.74,4.78c-.69,1.15-2.46,3.46-5.46,3.37-3.99-.14-6.7-3.74-6.7-3.74,0,0-4.89,7.61-13.01,6.18-8.12-1.42-7.34-5.29-7.34-5.29,0,0-1.03.91-2.58.26-1.43-.6-.99-1.41-.91-1.53-.19.09-2.31,1.11-4.76.38-2.57-.77-2.71-2.19-2.71-2.19,0,0-4.76,2.71-8.37.39s-3.99-7.47-3.99-7.47c0,0-4.13,3.09-8.5-3.6-.76-1.16-1.21-2.47-1.4-3.84,1.13,1.3,2.47,2.66,3.84,3.62,3.64,2.49,5.83,0,5.83,0,0,0,1.44,6.58,4.7,7.53,4.9,1.42,6.96-3.23,6.96-3.23,0,0,.74,4.71,4.41,5.22,6.39.89,7.23-4.55,7.23-4.55,0,0,1.99,9.15,8.46,9.66,8.95.72,12.55-5.92,12.55-5.92Z"/>
  <path class="cls-6" d="M109.12,29.4c-4.75,7.3-7.38,7.03-9.46,6.74-2.13-.28-2.69-2.97-2.69-2.97,0,0,.28,1.36-1.03,1.55-1.33.19-1.61-.57-1.61-.57,0,0-.23,2.02-3.81,2.1-3.58.08-5.01-2-5.01-2,0,0-8.34,2.58-11.36,11.74-2.59,7.88,5.15,16.2,7.37,18.38-7.07-3.64-9.61-9.72-9-16.77,1.1-12.94,14.21-16.29,14.21-16.29,0,0,.66,3.97,4.62,3.19,3.18-.63,3.1-3.51,2.94-4.63.18.88.69,2.74,1.8,2.31,1.28-.49,1.76-2.66,1.85-3.1-.09.67-.55,5.42,3.54,5.42,4.4,0,6.61-5.29,6.61-5.29.35.05.7.1,1.06.17Z"/>
  <path class="cls-11" d="M142.46,96.34s-3.13,27.05-4.3,31.21c-.74,2.63-2.21,3.34-3.6,2.32-.82-.59-1.61-1.76-2.24-3.49-1.3-3.57-4.48-18.36-5.92-25.16-.44-2.1-.72-3.44-.72-3.44,0,0,3.39-2.48,8.06-2.86,4.68-.39,8.72,1.43,8.72,1.43Z"/>
  <path class="cls-4" d="M142.46,96.34s-3.13,27.05-4.3,31.21c-.74,2.63-2.21,3.34-3.6,2.32.66-.22,1.23-.68,1.53-1.5,1.14-3.04-.72-25.38-.72-25.38,0,0-4,.49-8.98-1.77-.44-2.1-.72-3.44-.72-3.44,0,0,3.39-2.48,8.06-2.86,4.68-.39,8.72,1.43,8.72,1.43Z"/>
  <path class="cls-12" d="M148.93,112.11c0,1.93-.13,12.76-1.67,13.27-1.1.38-5.76,1.51-9.39,1.55-1.49.02-2.8-.15-3.63-.64-1.02-.6-1.88-2.68-2.55-5.22-1.22-4.51-1.88-10.49-1.96-12.31-.08-1.69.68-2.56,1.91-3.12h.01c.82-.38,1.84-.61,2.97-.88,1.51-.34,3.14-.53,4.32-.65,1.03-.09,1.74-.12,1.74-.12l.65-3.09s.12-.39,1.41-.25c1.3.12,1.55,2.71,4,3.99,0,0,2.18,5.54,2.18,7.47Z"/>
  <path class="cls-12" d="M137.87,126.93c-.2.08-.42.13-.66.14-3.09.12-4.25.12-5.29-1.3-1.02-1.41-.64-2.06-.64-2.06,0,0-1.55.12-2.19-1.16-.26-.53-.24-1.28-.13-1.97.17-.94.51-1.77.51-1.77,0,0-1.8-.64-2.32-2.44-.51-1.81.14-3.22.14-3.22,0,0-1.68-.39-2.07-1.55s-1.93-3.23.91-4.25c1.68-.61,3.96-1.27,5.51-1.71h.01c1.07-.3,1.81-.49,1.81-.49,0,0,1.93-.65,3.23,1.03,1.13,1.47,2.75,7.9,3.4,11.2.09.47.16.85.2,1.17.35,2.38.06,7.5-2.43,8.37Z"/>
  <path class="cls-9" d="M148.93,112.11c0,1.93-.13,12.76-1.67,13.27-1.1.38-5.76,1.51-9.39,1.55-.2.08-.42.13-.66.14-3.09.12-4.25.12-5.29-1.3-1.02-1.41-.64-2.06-.64-2.06,0,0-1.55.12-2.19-1.16-.26-.53-.24-1.28-.13-1.97.78.25,1.73.48,2.73.49.25,0,.5-.01.75-.03,2.89-.28,5.91,2.83,7.65-3.65v-.02c1.53-5.8-1.72-8.83-1.15-13.24,1.03-.09,1.74-.12,1.74-.12l.65-3.09s.12-.39,1.41-.25c1.3.12,1.55,2.71,4,3.99,0,0,2.18,5.54,2.18,7.47Z"/>
  <path class="cls-8" d="M178.57,92.79c-1.03,2.46-2.58,1.03-2.58,1.03,0,0,4.38,10.05-2.32,20.61-2.69,4.25-7.46,7.38-12.31,9.48-7.21,3.14-14.61,4.01-15.77,3.01-1.93-1.67-2.32-5.92-.91-9.66.82-2.15.91-4.16.76-5.81h0c-.1-1.23-.34-2.24-.5-2.94-.39-1.68-.26-4.25,5.67-6.45,5.92-2.18,11.07-8.37,5.41-16.36-.66-.93-1.35-1.75-2.07-2.49-3.09-3.23-6.51-4.74-8.86-5.43-1.73-.51-2.86-.58-2.86-.58,0,0-5.8.39-7.22-2.71-1.41-3.09-1.67-7.21,1.16-7.98,2.84-.77,3.87-1.16,18.04,4.25,14.17,5.4,16.23,11.59,16.23,11.59,0,0,1.16.52,1.8,1.42.65.9,0,1.55,0,1.55,0,0,2.71-.12,3.23,1.03.51,1.16-1.42,1.67-1.42,1.67,0,0,5.54,2.32,4.51,4.76Z"/>
  <path class="cls-9" d="M148.53,109.92c-1.11.48-2.15.98-3.09,1.52-.1-1.22-.34-2.23-.5-2.93-.39-1.68-.26-4.25,5.67-6.45,5.92-2.18,11.07-8.37,5.41-16.36-.66-.93-1.35-1.75-2.07-2.49,2.67,1.33,5.39,3.74,6.3,8.05,1.99,9.45-4.41,15.56-11.72,18.66Z"/>
  <path class="cls-9" d="M178.57,92.79c-1.03,2.46-2.58,1.03-2.58,1.03,0,0,4.38,10.05-2.32,20.61-2.69,4.25-7.46,7.38-12.31,9.48,1.58-1.49,3.33-3.27,5.29-5.41,12.36-13.48,6.12-23.65,6.12-23.65,0,0,1.14-.82,1.27-3.8.09-1.91-.98-2.19-1.76-2.15.59-.23,1.15-.81.2-2.26-.35-.55-.72-.95-1.08-1.26-1.25-1.09-2.42-1.01-2.42-1.01,0,0,1.48-2.02-8.15-7.11-9.63-5.08-16.29-3.83-16.29-3.83,0,0,.98,1.47.57,4.34-1.73-.51-2.86-.58-2.86-.58,0,0-5.8.39-7.22-2.71-1.41-3.09-1.67-7.21,1.16-7.98,2.84-.77,3.87-1.16,18.04,4.25,14.17,5.4,16.23,11.59,16.23,11.59,0,0,1.16.52,1.8,1.42.65.9,0,1.55,0,1.55,0,0,2.71-.12,3.23,1.03.51,1.16-1.42,1.67-1.42,1.67,0,0,5.54,2.32,4.51,4.76Z"/>
  <circle class="cls-2" cx="133.49" cy="89.71" r="11.31" transform="translate(-24.34 120.67) rotate(-45)"/>
  <path class="cls-1" d="M144.81,89.72c0,6.24-5.07,11.31-11.31,11.31-4.74,0-8.81-2.92-10.49-7.06,1.72,1.06,3.73,1.66,5.89,1.66,6.25,0,11.31-5.07,11.31-11.32,0-1.5-.3-2.93-.83-4.25,3.26,1.98,5.43,5.57,5.43,9.66Z"/>
  <circle class="cls-10" cx="133.23" cy="75.02" r="8.06"/>
  <path class="cls-7" d="M141.29,75.02c0,4.46-3.62,8.06-8.06,8.06-3.58,0-6.62-2.33-7.67-5.56,1.01.47,2.14.73,3.33.73,4.46,0,8.06-3.62,8.06-8.06,0-.88-.14-1.73-.41-2.51,2.8,1.25,4.75,4.07,4.75,7.34Z"/>
  <path class="cls-6" d="M117.93,132.24c-9.66,4.89-23.45,4.64-33.12,2.96-5.42-.93-9.86-3.49-11.99-7.38,2.74,1.81,5.82,3.29,8.94,3.72,10,1.36,33.47.7,33.83-9.64.31-8.55-4.91-22.43-13.45-29.78,7.41,2.19,12.28,8.31,16.61,14.29,6.65,9.17,8.83,20.93-.82,25.83Z"/>
  <path class="cls-5" d="M73.28,81.52c-3.13,5.27-4.69,7.81-6.68,7.53-1.99-.28-1.85-4.56,1.14-6.61s5.54-.92,5.54-.92Z"/>
  <path class="cls-5" d="M55.66,113.93c-3.13,6.83-3.41,10.79-1.71,13,1.71,2.21,3.98-1.34,3.41-4.75-.57-3.41-1.71-8.25-1.71-8.25Z"/>
  <path class="cls-5" d="M8.05,46.52c.81,10.41,2.78,15.46,3.02,18.41.24,2.96-3.45.68-6.72-5.57-3.27-6.25-2.87-14.94-.94-16.28,1.93-1.34,4.35-.24,4.63,3.43Z"/>
  <path class="cls-5" d="M62.48,186.13c-1.14,5.68-4.65,7.82-5.03,11.08-.37,3.27,3.75,3.7,5.03,2.42s1.85-8.44,1.85-11.47-1.85-2.03-1.85-2.03Z"/>
  <path class="cls-5" d="M111.51,184.99c-.43,6.96-2.84,11.51-3.41,14.5-.57,2.98,2.56,2.22,4.12,2.32,1.56.1,1.42-6.01.99-14.54-.43-8.53-1.71-2.27-1.71-2.27Z"/>
</svg>